<?xml version="1.0" encoding="UTF-8"?>
<svg xmlns="http://www.w3.org/2000/svg" xmlns:xlink="http://www.w3.org/1999/xlink" width="2000" height="2000" viewBox="0 0 2000 2000">
<rect x="-200" y="-200" width="2400" height="2400" fill="rgb(100%, 100%, 100%)" fill-opacity="1"/>
<path fill-rule="nonzero" fill="rgb(12.939453%, 12.939453%, 12.939453%)" fill-opacity="1" d="M 959.050781 1209.914062 C 955.539062 1209.914062 951.996094 1209.265625 948.597656 1207.90625 C 913.039062 1193.738281 881.25 1172.730469 854.148438 1145.476562 C 826.886719 1118.144531 805.964844 1086.289062 791.996094 1050.828125 C 779.097656 1018.210938 772.554688 983.558594 772.554688 947.890625 C 772.628906 901.980469 783.941406 856.601562 805.269531 816.601562 C 818.34375 792.328125 834.90625 770.101562 854.558594 750.449219 L 1083.53125 522.03125 C 1136.269531 469.378906 1206.351562 440.390625 1280.871094 440.390625 C 1355.640625 440.390625 1425.871094 469.519531 1478.621094 522.410156 C 1531.21875 575.128906 1560.148438 645.308594 1560.078125 720.011719 C 1560 794.71875 1530.898438 864.839844 1478.148438 917.441406 L 1249.199219 1145.898438 C 1229.621094 1165.492188 1207.308594 1182.03125 1182.910156 1195.03125 C 1171.941406 1200.890625 1158.460938 1198.871094 1149.660156 1190.085938 C 1140.878906 1181.304688 1138.859375 1167.796875 1144.699219 1156.832031 C 1175.480469 1099.015625 1179.351562 1030.867188 1155.328125 969.871094 C 1151.199219 959.398438 1153.699219 947.46875 1161.660156 939.53125 L 1331.28125 770.261719 C 1359.140625 742.449219 1359.210938 697.148438 1331.421875 669.269531 C 1317.941406 655.78125 1299.980469 648.328125 1280.871094 648.328125 C 1261.828125 648.328125 1243.910156 655.75 1230.378906 669.210938 L 1001.449219 897.601562 C 987.988281 911.058594 980.53125 929.019531 980.488281 948.160156 L 980.496094 949.640625 C 980.566406 950.238281 980.589844 950.589844 980.609375 951.210938 C 981.292969 969.101562 988.652344 985.941406 1001.328125 998.609375 C 1014.058594 1011.339844 1030.871094 1018.753906 1048.679688 1019.480469 C 1063.339844 1020.089844 1075.101562 1031.816406 1075.738281 1046.480469 C 1077.289062 1082.195312 1063.679688 1117.140625 1038.398438 1142.332031 L 979.019531 1201.652344 C 973.625 1207.046875 966.410156 1209.914062 959.050781 1209.914062 Z M 1280.871094 496.878906 C 1221.421875 496.878906 1165.5 520.011719 1123.441406 562.019531 L 894.476562 790.421875 C 878.742188 806.160156 865.46875 823.949219 855.0625 843.28125 C 838.117188 875.058594 829.101562 911.28125 829.046875 947.941406 C 829.046875 976.429688 834.265625 1004.078125 844.550781 1030.097656 C 855.683594 1058.351562 872.367188 1083.753906 894.179688 1105.613281 C 911.480469 1123.011719 931.144531 1137.210938 952.824219 1147.96875 L 998.503906 1102.34375 C 1007.238281 1093.640625 1013.46875 1082.859375 1016.730469 1071.175781 C 996.011719 1065.269531 976.96875 1054.136719 961.386719 1038.558594 C 938.789062 1015.960938 925.59375 986 924.191406 954.121094 C 924.027344 952.121094 923.996094 950.070312 923.996094 948.089844 C 924.082031 913.839844 937.410156 881.730469 961.53125 857.621094 L 1190.511719 629.199219 C 1214.710938 605.101562 1246.789062 591.839844 1280.871094 591.839844 C 1315.058594 591.839844 1347.210938 605.171875 1371.410156 629.371094 C 1421.191406 679.328125 1421.070312 760.449219 1371.179688 810.238281 L 1214.210938 966.898438 C 1227.019531 1007.15625 1230.480469 1049.382812 1224.75 1090.496094 L 1438.25 877.441406 C 1480.328125 835.488281 1503.519531 779.558594 1503.578125 719.941406 C 1503.648438 660.339844 1480.578125 604.359375 1438.628906 562.308594 C 1396.539062 520.121094 1340.519531 496.878906 1280.871094 496.878906 "/>
<path fill-rule="nonzero" fill="rgb(12.939453%, 12.939453%, 12.939453%)" fill-opacity="1" d="M 719.148438 1559.613281 C 644.371094 1559.613281 574.152344 1530.484375 521.410156 1477.574219 C 412.605469 1368.539062 412.78125 1191.3125 521.808594 1082.507812 L 750.761719 854.03125 C 770.425781 834.441406 792.65625 817.960938 816.867188 804.988281 C 827.8125 799.121094 841.359375 801.128906 850.152344 809.898438 C 858.960938 818.699219 860.96875 832.210938 855.121094 843.191406 C 838.117188 875.058594 829.101562 911.28125 829.046875 947.941406 C 829.046875 976.429688 834.265625 1004.078125 844.550781 1030.097656 C 848.6875 1040.578125 846.203125 1052.515625 838.226562 1060.472656 L 668.679688 1229.675781 C 655.21875 1243.128906 647.78125 1261.054688 647.761719 1280.175781 C 647.746094 1299.289062 655.144531 1317.242188 668.589844 1330.703125 C 682.097656 1344.230469 700.0625 1351.679688 719.148438 1351.679688 C 738.195312 1351.679688 756.089844 1344.273438 769.539062 1330.824219 L 998.503906 1102.34375 C 1012.601562 1088.296875 1020.160156 1068.835938 1019.289062 1048.929688 C 1018.621094 1030.867188 1011.28125 1014.039062 998.628906 1001.382812 C 985.949219 988.648438 969.121094 981.261719 951.214844 980.519531 C 937.203125 979.929688 925.738281 969.171875 924.292969 955.21875 C 924.050781 952.878906 923.996094 950.429688 923.996094 948.089844 C 924.082031 913.839844 937.410156 881.730469 961.53125 857.621094 L 1020.960938 798.339844 C 1028.929688 790.378906 1040.839844 787.890625 1051.371094 792.089844 C 1086.898438 806.25 1118.691406 827.25 1145.851562 854.5 C 1173.011719 881.71875 1193.878906 913.578125 1207.898438 949.171875 C 1237.988281 1025.582031 1233.121094 1110.941406 1194.570312 1183.378906 C 1181.550781 1207.773438 1165 1230.050781 1145.371094 1249.59375 L 916.4375 1477.972656 C 863.726562 1530.617188 793.652344 1559.613281 719.148438 1559.613281 Z M 775.257812 909.390625 L 561.707031 1122.492188 C 474.734375 1209.296875 474.59375 1350.6875 561.410156 1437.6875 C 603.480469 1479.878906 659.5 1503.121094 719.148438 1503.121094 C 778.578125 1503.121094 834.464844 1479.992188 876.527344 1437.996094 L 1105.488281 1209.585938 C 1121.160156 1193.980469 1134.339844 1176.226562 1144.710938 1156.808594 C 1175.480469 1099.015625 1179.351562 1030.867188 1155.328125 969.871094 C 1144.160156 941.511719 1127.519531 916.121094 1105.839844 894.390625 C 1088.5 876.988281 1068.808594 862.789062 1047.128906 852.019531 L 1001.449219 897.601562 C 992.660156 906.390625 986.4375 917.101562 983.15625 928.800781 C 1003.980469 934.710938 1023.058594 945.859375 1038.609375 961.488281 C 1061.328125 984.199219 1074.539062 1014.460938 1075.738281 1046.644531 C 1077.289062 1082.195312 1063.679688 1117.140625 1038.398438 1142.332031 L 809.464844 1370.789062 C 785.363281 1394.886719 753.289062 1408.171875 719.148438 1408.171875 C 684.96875 1408.171875 652.8125 1394.84375 628.617188 1370.632812 C 604.496094 1346.472656 591.234375 1314.328125 591.277344 1280.121094 C 591.3125 1245.917969 604.628906 1213.800781 628.769531 1189.6875 L 785.671875 1033.105469 C 776.96875 1005.742188 772.554688 977.160156 772.554688 947.890625 C 772.574219 934.980469 773.480469 922.109375 775.257812 909.390625 "/>
</svg>
